<svg width="14" height="16" viewBox="0 0 14 16" fill="none" xmlns="http://www.w3.org/2000/svg">
<path d="M11.6667 7.33328H2.33333C1.59695 7.33328 1 7.93024 1 8.66662V13.3333C1 14.0697 1.59695 14.6666 2.33333 14.6666H11.6667C12.403 14.6666 13 14.0697 13 13.3333V8.66662C13 7.93024 12.403 7.33328 11.6667 7.33328Z" stroke="#888888" stroke-linecap="round" stroke-linejoin="round"/>
<path d="M3.66672 7.33328V4.66662C3.66672 3.78256 4.01791 2.93471 4.64303 2.30959C5.26815 1.68447 6.116 1.33328 7.00005 1.33328C7.88411 1.33328 8.73195 1.68447 9.35707 2.30959C9.98219 2.93471 10.3334 3.78256 10.3334 4.66662V7.33328" stroke="#888888" stroke-linecap="round" stroke-linejoin="round"/>
</svg>
