<svg width="16" height="12" viewBox="0 0 16 12" fill="none" xmlns="http://www.w3.org/2000/svg">
<path d="M15.3125 1.47012C14.7746 1.70216 14.1892 1.86915 13.5863 1.93419C14.2123 1.5623 14.6811 0.974772 14.9047 0.281843C14.3173 0.631277 13.6738 0.876307 13.0027 1.00606C12.7223 0.706226 12.383 0.467362 12.0062 0.304356C11.6294 0.14135 11.2231 0.0576941 10.8125 0.058601C9.15135 0.058601 7.81542 1.40509 7.81542 3.05743C7.81542 3.28946 7.84354 3.52149 7.88925 3.74473C5.40194 3.61466 3.18358 2.42637 1.70878 0.607038C1.44005 1.06603 1.29923 1.58865 1.30096 2.12051C1.30096 3.16114 1.83007 4.07872 2.6369 4.61837C2.16142 4.59964 1.69707 4.46895 1.28163 4.23692V4.27384C1.28163 5.73106 2.31171 6.93868 3.68456 7.21641C3.42679 7.28337 3.16162 7.31762 2.8953 7.31837C2.70018 7.31837 2.51561 7.29903 2.32928 7.27266C2.70897 8.46095 3.81464 9.32403 5.13124 9.35216C4.10116 10.159 2.81093 10.6336 1.40995 10.6336C1.15858 10.6336 0.92655 10.6248 0.68573 10.5967C2.01464 11.4492 3.59139 11.9414 5.28944 11.9414C10.8019 11.9414 13.8183 7.37462 13.8183 3.41075C13.8183 3.28067 13.8183 3.15059 13.8096 3.02051C14.3932 2.59337 14.9047 2.06427 15.3125 1.47012Z" fill="white"/>
</svg>
