<svg width="24" height="24" viewBox="0 0 24 24" fill="none" xmlns="http://www.w3.org/2000/svg">
<path d="M21.6045 2.25H7.27878C7.16138 2.2499 7.04511 2.27293 6.93661 2.31777C6.8281 2.3626 6.7295 2.42837 6.64641 2.51132C6.56332 2.59426 6.49739 2.69276 6.45237 2.80119C6.40735 2.90962 6.38413 3.02585 6.38403 3.14325V7.125L14.6858 9.5625L22.5 7.125V3.14325C22.4999 3.02579 22.4767 2.90949 22.4316 2.80102C22.3866 2.69254 22.3206 2.59401 22.2374 2.51105C22.1542 2.4281 22.0555 2.36234 21.9469 2.31755C21.8384 2.27276 21.722 2.2498 21.6045 2.25Z" fill="#41A5EE"/>
<path d="M22.5 7.125H6.38403V12L14.6858 13.4625L22.5 12V7.125Z" fill="#2B7CD3"/>
<path d="M6.38403 12V16.875L14.1975 17.85L22.5 16.875V12H6.38403Z" fill="#185ABD"/>
<path d="M7.27878 21.75H21.6038C21.7213 21.7503 21.8377 21.7274 21.9464 21.6827C22.0551 21.6379 22.1539 21.5722 22.2371 21.4892C22.3204 21.4062 22.3864 21.3077 22.4316 21.1992C22.4767 21.0906 22.4999 20.9743 22.5 20.8567V16.875H6.38403V20.8567C6.38413 20.9742 6.40735 21.0904 6.45237 21.1988C6.49739 21.3072 6.56332 21.4057 6.64641 21.4887C6.7295 21.5716 6.8281 21.6374 6.93661 21.6822C7.04511 21.7271 7.16138 21.7501 7.27878 21.75Z" fill="#103F91"/>
<path opacity="0.1" d="M12.3255 6.14999H6.38403V18.3375H12.3255C12.5623 18.3363 12.789 18.2419 12.9567 18.0747C13.1243 17.9075 13.2193 17.681 13.221 17.4442V7.04324C13.2193 6.8065 13.1243 6.57999 12.9567 6.41279C12.789 6.24559 12.5623 6.15117 12.3255 6.14999Z" fill="black"/>
<path opacity="0.2" d="M11.8373 6.6375H6.38403V18.825H11.8373C12.074 18.8238 12.3008 18.7294 12.4684 18.5622C12.636 18.395 12.731 18.1685 12.7328 17.9317V7.53075C12.731 7.294 12.636 7.06749 12.4684 6.90029C12.3008 6.73309 12.074 6.63867 11.8373 6.6375Z" fill="black"/>
<path opacity="0.2" d="M11.8373 6.6375H6.38403V17.85H11.8373C12.074 17.8488 12.3008 17.7544 12.4684 17.5872C12.636 17.42 12.731 17.1935 12.7328 16.9567V7.53075C12.731 7.294 12.636 7.06749 12.4684 6.90029C12.3008 6.73309 12.074 6.63867 11.8373 6.6375Z" fill="black"/>
<path opacity="0.2" d="M11.349 6.6375H6.38403V17.85H11.349C11.5858 17.8488 11.8125 17.7544 11.9802 17.5872C12.1478 17.42 12.2428 17.1935 12.2445 16.9567V7.53075C12.2428 7.294 12.1478 7.06749 11.9802 6.90029C11.8125 6.73309 11.5858 6.63867 11.349 6.6375Z" fill="black"/>
<path d="M2.3955 6.6375H11.349C11.5862 6.6373 11.8137 6.73127 11.9816 6.89877C12.1496 7.06626 12.2441 7.29358 12.2445 7.53075V16.4692C12.2441 16.7064 12.1496 16.9337 11.9816 17.1012C11.8137 17.2687 11.5862 17.3627 11.349 17.3625H2.3955C2.27804 17.3627 2.16168 17.3397 2.05309 17.295C1.9445 17.2502 1.84581 17.1844 1.76264 17.1014C1.67948 17.0185 1.61348 16.92 1.56841 16.8115C1.52334 16.703 1.5001 16.5867 1.5 16.4692V7.53075C1.5001 7.41328 1.52334 7.29699 1.56841 7.18851C1.61348 7.08004 1.67948 6.9815 1.76264 6.89855C1.84581 6.81559 1.9445 6.74984 2.05309 6.70505C2.16168 6.66025 2.27804 6.6373 2.3955 6.6375Z" fill="url(#paint0_linear)"/>
<path d="M5.17496 13.491C5.19221 13.629 5.20421 13.749 5.20946 13.8517H5.23046C5.23796 13.7542 5.25446 13.6365 5.27921 13.4992C5.30396 13.362 5.32571 13.2457 5.34596 13.1505L6.28721 9.09525H7.50521L8.48021 13.0897C8.537 13.3368 8.57758 13.5874 8.60171 13.8397H8.61821C8.63612 13.5941 8.66994 13.3498 8.71946 13.1085L9.49871 9.09H10.6065L9.23846 14.901H7.94321L7.01546 11.0565C6.98846 10.9455 6.95796 10.801 6.92396 10.623C6.88996 10.445 6.86896 10.315 6.86096 10.233H6.84521C6.83471 10.3275 6.81371 10.4677 6.78221 10.6537C6.75071 10.8405 6.72596 10.9777 6.70721 11.0677L5.83496 14.9032H4.51796L3.14246 9.09525H4.26746L5.11571 13.1587C5.14102 13.2684 5.1608 13.3793 5.17496 13.491Z" fill="white"/>
<defs>
<linearGradient id="paint0_linear" x1="3.3705" y1="5.9355" x2="10.374" y2="18.0645" gradientUnits="userSpaceOnUse">
<stop stop-color="#2368C4"/>
<stop offset="0.5" stop-color="#1A5DBE"/>
<stop offset="1" stop-color="#1146AC"/>
</linearGradient>
</defs>
</svg>
