<svg width="24" height="24" viewBox="0 0 24 24" fill="none" xmlns="http://www.w3.org/2000/svg">
<path d="M20.9997 13L20.9997 13H19H18V14L18 21H15V17V16H14H9.99998H8.99998V17V21H5.99998V14V13H4.99998H3.00041L3.00036 12.9999L11.9862 3.01561C11.9901 3.01494 11.9948 3.0145 12 3.0145C12.0051 3.0145 12.0098 3.01494 12.0138 3.01561L20.9997 13ZM2.99994 13C2.99959 13 2.99962 13 2.9997 13C2.99974 13 2.99978 13.0001 2.99981 13.0001L2.99989 13.0002C2.9998 13.0004 2.99967 13.0006 2.99949 13.0008L2.99998 13.0003L3.00025 13H2.99998C2.99997 13 2.99995 13 2.99994 13Z" stroke="white" stroke-width="2"/>
</svg>
