<svg width="139" height="37" viewBox="0 0 139 37" fill="none" xmlns="http://www.w3.org/2000/svg">
<path d="M0.648 36H15.24C22.296 36 24.168 34.8 26.136 32.88C27.96 31.104 29.112 28.512 29.112 25.776C29.112 22.368 28.008 19.008 23.784 17.424C25.224 16.704 28.008 15.312 28.008 10.368C28.008 6.816 25.848 1.536 17.4 1.536H0.648V36ZM7.56 20.832H16.728C19.32 20.832 21.912 21.984 21.912 25.008C21.912 28.512 19.896 30.048 16.392 30.048H7.56V20.832ZM7.56 7.488H15.816C19.08 7.488 21.096 8.352 21.096 11.184C21.096 13.92 18.84 15.024 16.008 15.024H7.56V7.488ZM37.2086 36H51.8006C58.8566 36 60.7286 34.8 62.6966 32.88C64.5206 31.104 65.6726 28.512 65.6726 25.776C65.6726 22.368 64.5686 19.008 60.3446 17.424C61.7846 16.704 64.5686 15.312 64.5686 10.368C64.5686 6.816 62.4086 1.536 53.9606 1.536H37.2086V36ZM44.1206 20.832H53.2886C55.8806 20.832 58.4726 21.984 58.4726 25.008C58.4726 28.512 56.4566 30.048 52.9526 30.048H44.1206V20.832ZM44.1206 7.488H52.3766C55.6406 7.488 57.6566 8.352 57.6566 11.184C57.6566 13.92 55.4006 15.024 52.5686 15.024H44.1206V7.488ZM72.2332 18.768C72.2332 34.944 84.2332 36.912 88.7932 36.912C93.3532 36.912 105.353 34.944 105.353 18.768C105.353 2.592 93.3532 0.623998 88.7932 0.623998C84.2332 0.623998 72.2332 2.592 72.2332 18.768ZM79.4332 18.768C79.4332 9.12 84.9052 6.72 88.7932 6.72C92.6812 6.72 98.1532 9.12 98.1532 18.768C98.1532 28.416 92.6812 30.816 88.7932 30.816C84.9052 30.816 79.4332 28.416 79.4332 18.768ZM127.122 18.096L137.634 1.536H129.33L123.042 12.672L116.898 1.536H108.306L118.818 18.384L107.682 36H116.082L123.042 24.24L129.57 36H138.354L127.122 18.096Z" fill="url(#paint0_linear)"/>
<defs>
<linearGradient id="paint0_linear" x1="68.5" y1="-19" x2="68.5" y2="47" gradientUnits="userSpaceOnUse">
<stop stop-color="#2F80ED"/>
<stop offset="1" stop-color="#004095"/>
</linearGradient>
</defs>
</svg>
